<svg xmlns="http://www.w3.org/2000/svg" viewBox="0 0 48 48" width="48" height="48">
  <defs>
    <linearGradient id="g1" x1="0%" y1="0%" x2="100%" y2="100%">
      <stop offset="0%" stop-color="#3b82f6"/>
      <stop offset="100%" stop-color="#06b6d4"/>
    </linearGradient>
    <linearGradient id="g2" x1="0%" y1="0%" x2="100%" y2="100%">
      <stop offset="0%" stop-color="#2563eb"/>
      <stop offset="100%" stop-color="#0891b2"/>
    </linearGradient>
  </defs>
  <!-- Rounded square base -->
  <rect x="2" y="2" width="44" height="44" rx="12" fill="url(#g1)"/>
  <!-- Brain left hemisphere -->
  <path d="M14 30c0-5.5 3-10 7.5-12C23 17 24 15.5 24 14v0c0 1.5-1 3-2.5 3.8C17 20 14 24.5 14 30c0 3.5 1.5 6.5 4 8.5.8.6 1.2 1.5 1.3 2.5h3.7V30" fill="none" stroke="#fff" stroke-width="2.2" stroke-linecap="round" stroke-linejoin="round" opacity="0.95"/>
  <!-- Brain right hemisphere -->
  <path d="M34 30c0-5.5-3-10-7.5-12C25 17 24 15.5 24 14v0c0 1.5 1 3 2.5 3.8C31 20 34 24.5 34 30c0 3.5-1.5 6.5-4 8.5-.8.6-1.2 1.5-1.3 2.5h-3.7V30" fill="none" stroke="#fff" stroke-width="2.2" stroke-linecap="round" stroke-linejoin="round" opacity="0.95"/>
  <!-- Brain folds left -->
  <path d="M22 22c-2.5.8-4.5 2.5-5.5 5" stroke="#fff" stroke-width="1.6" stroke-linecap="round" fill="none" opacity="0.6"/>
  <path d="M22 29c-3 .8-5.5 3-6.5 6" stroke="#fff" stroke-width="1.6" stroke-linecap="round" fill="none" opacity="0.45"/>
  <!-- Brain folds right -->
  <path d="M26 22c2.5.8 4.5 2.5 5.5 5" stroke="#fff" stroke-width="1.6" stroke-linecap="round" fill="none" opacity="0.6"/>
  <path d="M26 29c3 .8 5.5 3 6.5 6" stroke="#fff" stroke-width="1.6" stroke-linecap="round" fill="none" opacity="0.45"/>
  <!-- Tab indicators at top -->
  <rect x="10" y="7" width="7" height="3.5" rx="1.2" fill="#fff" opacity="0.5"/>
  <rect x="19" y="5.5" width="10" height="5" rx="1.5" fill="#fff" opacity="0.9"/>
  <rect x="31" y="7" width="7" height="3.5" rx="1.2" fill="#fff" opacity="0.5"/>
  <!-- Active tab dot -->
  <circle cx="24" cy="8" r="1.2" fill="url(#g2)"/>
</svg>
