<svg xmlns="http://www.w3.org/2000/svg" viewBox="0 0 16 16" width="16" height="16">
  <defs>
    <linearGradient id="g1" x1="0%" y1="0%" x2="100%" y2="100%">
      <stop offset="0%" stop-color="#3b82f6"/>
      <stop offset="100%" stop-color="#06b6d4"/>
    </linearGradient>
  </defs>
  <!-- Rounded square base -->
  <rect x="1" y="1" width="14" height="14" rx="3.5" fill="url(#g1)"/>
  <!-- Simplified brain — two arcs -->
  <path d="M5.5 11c0-3 1.5-5.5 3.5-6.5V5c-2 1-3.5 3.5-3.5 6.5" fill="none" stroke="#fff" stroke-width="1.4" stroke-linecap="round" opacity="0.9"/>
  <path d="M10.5 11c0-3-1.5-5.5-3.5-6.5V5c2 1 3.5 3.5 3.5 6.5" fill="none" stroke="#fff" stroke-width="1.4" stroke-linecap="round" opacity="0.9"/>
  <!-- Single fold each side -->
  <path d="M7 7.5c-1 .4-2 1.2-2.3 2.3" stroke="#fff" stroke-width="1" stroke-linecap="round" fill="none" opacity="0.5"/>
  <path d="M9 7.5c1 .4 2 1.2 2.3 2.3" stroke="#fff" stroke-width="1" stroke-linecap="round" fill="none" opacity="0.5"/>
  <!-- Simplified tab at top -->
  <rect x="5" y="2" width="6" height="2.5" rx="1" fill="#fff" opacity="0.85"/>
</svg>
