<svg xmlns="http://www.w3.org/2000/svg" viewBox="0 0 96 96" width="96" height="96">
  <defs>
    <linearGradient id="bg" x1="0%" y1="0%" x2="100%" y2="100%">
      <stop offset="0%" stop-color="#0097a7"/>
      <stop offset="100%" stop-color="#1565c0"/>
    </linearGradient>
  </defs>
  <!-- Brain shape -->
  <path d="M48 12C32 12 20 22 20 36c0 6 2.4 11 6 15 3 4 4 10 4 15v6c0 2.2 1.8 4 4 4h28c2.2 0 4-1.8 4-4v-6c0-5 1-11 4-15 3.6-4 6-9 6-15 0-14-12-24-28-24z" fill="url(#bg)"/>
  <!-- Brain divide -->
  <path d="M48 16v52" stroke="#fafafa" stroke-width="2" stroke-linecap="round" fill="none"/>
  <!-- Left hemisphere folds -->
  <path d="M46 26c-6 0-12 3-14 8" stroke="#fafafa" stroke-width="2" stroke-linecap="round" fill="none"/>
  <path d="M46 38c-8 0-16 3-18 8" stroke="#fafafa" stroke-width="2" stroke-linecap="round" fill="none"/>
  <path d="M46 50c-6 0-12 2-14 6" stroke="#fafafa" stroke-width="2" stroke-linecap="round" fill="none"/>
  <!-- Right hemisphere folds -->
  <path d="M50 26c6 0 12 3 14 8" stroke="#fafafa" stroke-width="2" stroke-linecap="round" fill="none"/>
  <path d="M50 38c8 0 16 3 18 8" stroke="#fafafa" stroke-width="2" stroke-linecap="round" fill="none"/>
  <path d="M50 50c6 0 12 2 14 6" stroke="#fafafa" stroke-width="2" stroke-linecap="round" fill="none"/>
  <!-- Base connector lines -->
  <line x1="36" y1="76" x2="36" y2="84" stroke="url(#bg)" stroke-width="2.5" stroke-linecap="round"/>
  <line x1="48" y1="76" x2="48" y2="84" stroke="url(#bg)" stroke-width="2.5" stroke-linecap="round"/>
  <line x1="60" y1="76" x2="60" y2="84" stroke="url(#bg)" stroke-width="2.5" stroke-linecap="round"/>
</svg>
