<svg xmlns="http://www.w3.org/2000/svg" viewBox="0 0 96 96" width="96" height="96">
  <defs>
    <linearGradient id="g1" x1="0%" y1="0%" x2="100%" y2="100%">
      <stop offset="0%" stop-color="#3b82f6"/>
      <stop offset="100%" stop-color="#06b6d4"/>
    </linearGradient>
    <linearGradient id="g2" x1="0%" y1="0%" x2="100%" y2="100%">
      <stop offset="0%" stop-color="#2563eb"/>
      <stop offset="100%" stop-color="#0891b2"/>
    </linearGradient>
  </defs>
  <!-- Rounded square base -->
  <rect x="4" y="4" width="88" height="88" rx="22" fill="url(#g1)"/>
  <!-- Brain left hemisphere -->
  <path d="M28 60c0-11 6-20 15-24C46 34 48 31 48 28v0c0 3-2 6-5 7.5C34 40 28 49 28 60c0 7 3 13 8 17 1.6 1.2 2.5 3 2.6 5h-7.2V60" fill="none" stroke="#fff" stroke-width="3.6" stroke-linecap="round" stroke-linejoin="round" opacity="0.95"/>
  <!-- Brain right hemisphere -->
  <path d="M68 60c0-11-6-20-15-24C50 34 48 31 48 28v0c0 3 2 6 5 7.5C62 40 68 49 68 60c0 7-3 13-8 17-1.6 1.2-2.5 3-2.6 5h7.2V60" fill="none" stroke="#fff" stroke-width="3.6" stroke-linecap="round" stroke-linejoin="round" opacity="0.95"/>
  <!-- Brain folds left -->
  <path d="M44 44c-5 1.5-9 5-11 10" stroke="#fff" stroke-width="2.8" stroke-linecap="round" fill="none" opacity="0.6"/>
  <path d="M44 58c-6 1.5-11 6-13 12" stroke="#fff" stroke-width="2.8" stroke-linecap="round" fill="none" opacity="0.45"/>
  <path d="M44 70c-3.5 1-6.5 3-8 6.5" stroke="#fff" stroke-width="2.8" stroke-linecap="round" fill="none" opacity="0.3"/>
  <!-- Brain folds right -->
  <path d="M52 44c5 1.5 9 5 11 10" stroke="#fff" stroke-width="2.8" stroke-linecap="round" fill="none" opacity="0.6"/>
  <path d="M52 58c6 1.5 11 6 13 12" stroke="#fff" stroke-width="2.8" stroke-linecap="round" fill="none" opacity="0.45"/>
  <path d="M52 70c3.5 1 6.5 3 8 6.5" stroke="#fff" stroke-width="2.8" stroke-linecap="round" fill="none" opacity="0.3"/>
  <!-- Tab indicators at top -->
  <rect x="18" y="13" width="15" height="7" rx="2.5" fill="#fff" opacity="0.45"/>
  <rect x="22" y="15" width="8" height="2" rx="1" fill="url(#g1)" opacity="0.4"/>
  <rect x="36" y="10" width="24" height="10" rx="3.5" fill="#fff" opacity="0.92"/>
  <rect x="41" y="13.5" width="14" height="2.5" rx="1.2" fill="url(#g2)" opacity="0.5"/>
  <rect x="63" y="13" width="15" height="7" rx="2.5" fill="#fff" opacity="0.45"/>
  <rect x="67" y="15" width="8" height="2" rx="1" fill="url(#g1)" opacity="0.4"/>
  <!-- Active tab dot -->
  <circle cx="48" cy="15" r="2" fill="url(#g2)"/>
</svg>
